<!--?xml version="1.0" encoding="utf-8"?-->
<!-- Generator: Adobe Illustrator 18.1.1, SVG Export Plug-In . SVG Version: 6.00 Build 0)  -->

<svg version="1.1" id="_x32_" xmlns="http://www.w3.org/2000/svg" xmlns:xlink="http://www.w3.org/1999/xlink" x="0px" y="0px" viewBox="0 0 512 512" style="width: 64px; height: 64px; opacity: 1;" xml:space="preserve">
<style type="text/css">
	.st0{fill:#4B4B4B;}
</style>
<g>
	<path class="st0" d="M462.052,217.01c4.348-8.909,6.886-18.786,6.891-29.154c0-17.424-6.797-33.38-17.834-45.34
		c1.336-5.135,2.079-10.771,2.079-16.89c0.004-22.403-10.964-42.247-28.006-54.396c-0.824-32.214-24.277-59.236-56.299-64.421
		l-0.152-0.033l-0.443-0.048l-22.575-3.282l-0.821-0.09l-4.66-0.517h0.021C326.469,1.271,314.955-0.017,292.773,0
		c-11.612,0-25.672,0.328-44.273,1.001c-22.514,0.836-48.399,3.363-72.611,7.604c-24.237,4.257-46.689,10.115-62.87,18.17
		C74.061,46.201,48.36,84.363,40.584,132.77c-1.657,10.238-2.466,20.55-2.466,30.771c0.046,45.676,15.956,89.883,44.77,118.784
		c12.855,12.846,24.946,23.313,36.472,33.288h-0.008c14.602,12.65,28.059,24.356,39.798,38.162
		c21.894,25.742,38.543,48.44,49.859,65.889c5.66,8.712,9.984,16.119,12.928,21.837c1.473,2.863,2.601,5.299,3.368,7.202
		c0.771,1.886,1.161,3.306,1.21,3.708l1.23,7.432l-1.226-7.432c2.842,17.162,10.529,31.976,21.558,42.608
		c11.004,10.623,25.488,16.988,41.205,16.981c13.495,0.008,26.181-4.692,36.542-12.978c10.378-8.276,18.495-20.048,23.462-34.232
		v0.008c5.185-14.774,7.145-28.974,7.141-42.05c-0.004-27.235-8.426-49.664-13.47-63.248l0.11,0.295l-1.386-3.774l-0.131-0.344
		l0.135,0.369c-3.413-9.261-8.966-16.923-14.352-24.503l0.004,0.017c-1.862-2.625-4.647-6.546-6.923-10.205
		c-0.333-0.533-0.62-1.034-0.919-1.542c2.621-0.476,6.226-0.935,11.173-1.164h75.995c37.083-0.017,67.201-30.139,67.218-67.234
		C473.881,238.404,469.209,226.591,462.052,217.01z M406.663,287.057h-76.75c-14.409,0.616-29.954,3.076-37.866,11.575
		c-21.312,22.854,13.65,50.966,19.983,68.284c6.296,17.284,20.48,50.318,7.465,87.414c-6.247,17.785-18.318,26.087-30.208,26.087
		c-14.155,0-28.055-11.747-31.607-33.158c-3.606-21.837-38.666-71.836-74.47-113.952c-23.174-27.268-49.49-44.815-77.984-73.312
		c-50.47-50.467-50.422-168.791,21.911-204.967c25.84-12.929,80.179-20.886,122.532-22.444c18.687-0.706,32.366-1.001,43.104-1.001
		c22.884,0,32.407,1.362,48.638,3.15l22.395,3.249c16.94,2.756,29.876,17.325,29.876,35.028c0,3.232-0.488,6.333-1.337,9.286h-6.336
		c-4.443,0-8.023,3.576-8.023,8.006c0,4.429,3.58,8.023,8.023,8.023h22.522c7.929,6.48,13.072,16.243,13.072,27.3
		c0,6.932-1.396,13.355-6.252,18.802h-14.614c-4.43,0-8.01,3.594-8.01,8.023c0,4.43,3.58,8.006,8.01,8.006h23.412
		c8.01,6.497,13.207,16.292,13.207,27.4c0,10.418-4.519,19.704-11.66,26.168h-17.473c-4.426,0-8.019,3.61-8.019,8.039
		c0,4.422,3.593,8.007,8.019,8.007h23.014c6.308,5.364,11.066,12.928,11.066,21.345
		C442.303,271.102,426.367,287.057,406.663,287.057z" style="fill: rgb(223, 86, 86);"></path>
</g>
</svg>
